<?xml version="1.0" encoding="utf-8"?>
<!-- Generator: Adobe Illustrator 27.5.0, SVG Export Plug-In . SVG Version: 6.00 Build 0)  -->
<svg version="1.1" id="Layer_1" xmlns="http://www.w3.org/2000/svg" xmlns:xlink="http://www.w3.org/1999/xlink" x="0px" y="0px"
	 viewBox="0 0 2047 2047" style="enable-background:new 0 0 2047 2047;" xml:space="preserve">
<g>
	<path style="fill:#FEFEFE;" d="M0,0h2048v2048H0V0z"/>
	<path style="fill:#DCDEDE;" d="M1758.36,295.344c4.67,0.322,8.848,1.398,13.024,3.58c6.128,3.202,11.178,8.344,13.006,15.16
		c1.398,5.218,0.912,10.834-1.838,15.534c-4.636,7.924-12.028,10.402-20.428,12.426c-5.586-0.28-10.29-0.674-15.192-3.572
		c-5.696-3.364-10.012-8.82-11.368-15.358c-0.153-0.724-0.269-1.453-0.348-2.188c-0.079-0.736-0.119-1.474-0.122-2.214
		c-0.001-0.739,0.035-1.476,0.108-2.212c0.073-0.736,0.185-1.467,0.334-2.192c0.149-0.724,0.335-1.439,0.556-2.144
		c0.223-0.705,0.481-1.397,0.776-2.076c0.293-0.679,0.621-1.341,0.984-1.986c0.361-0.645,0.755-1.27,1.182-1.874
		C1743.72,299.574,1750.534,296.524,1758.36,295.344z"/>
	<path style="fill:#375963;" d="M114.917,1727.102c24.122-0.6,48.523-0.264,72.655,0.214c3.557,2.974,6.811,6.146,7.987,10.784
		c0.979,3.862,1.071,7.758-1.115,11.25c-2.293,3.662-5.633,5.032-9.651,6.042c-15.336,0.366-57.21,1.892-69.896-0.978
		c-4.675-1.058-7.963-2.89-10.422-7.104c-1.823-3.124-2.134-6.294-0.975-9.726C105.317,1732.202,110.146,1729.454,114.917,1727.102z
		"/>
	<path style="fill:#DCDEDE;" d="M192.527,397.158c6.037-0.216,11.337-0.016,17.107,2.112c8.69,3.202,15.992,9.716,19.498,18.36
		c0.389,0.987,0.729,1.991,1.018,3.012c0.288,1.021,0.523,2.055,0.706,3.1c0.184,1.045,0.314,2.097,0.39,3.156
		c0.077,1.059,0.101,2.119,0.07,3.18c-0.032,1.06-0.117,2.117-0.254,3.17c-0.137,1.052-0.328,2.095-0.572,3.128
		c-0.244,1.032-0.539,2.05-0.886,3.054c-0.347,1.003-0.743,1.985-1.19,2.948c-4.16,8.976-11.852,15.02-20.898,18.594
		c-7.983,0.778-15.004,0.604-22.37-2.908c-0.98-0.465-1.935-0.979-2.863-1.542c-0.929-0.561-1.827-1.167-2.695-1.818
		c-0.868-0.652-1.701-1.345-2.5-2.08c-0.799-0.735-1.558-1.508-2.28-2.32c-0.721-0.811-1.4-1.655-2.037-2.534
		c-0.636-0.88-1.227-1.789-1.773-2.726c-0.546-0.939-1.043-1.902-1.492-2.89s-0.848-1.996-1.196-3.024
		c-2.716-8.134-2.288-17.262,1.641-24.926C174.754,404.838,182.961,400.316,192.527,397.158z"/>
	<path style="fill:#DCDEDE;" d="M1627.606,146.376c0.993-0.074,1.988-0.123,2.984-0.149c0.996-0.026,1.992-0.028,2.988-0.006
		c0.996,0.022,1.991,0.068,2.986,0.137c0.993,0.069,1.985,0.163,2.976,0.279c0.989,0.117,1.975,0.257,2.958,0.421
		c0.983,0.164,1.961,0.351,2.934,0.562c0.975,0.211,1.943,0.445,2.906,0.702c0.963,0.257,1.918,0.537,2.866,0.84
		c0.949,0.303,1.891,0.628,2.826,0.976c0.933,0.348,1.858,0.718,2.774,1.11c0.916,0.392,1.822,0.806,2.718,1.242
		c0.896,0.436,1.781,0.892,2.656,1.37c0.873,0.478,1.735,0.976,2.586,1.495c0.851,0.519,1.689,1.058,2.514,1.618
		c0.824,0.559,1.635,1.138,2.432,1.736c0.796,0.598,1.578,1.215,2.346,1.85c0.892,0.727,1.765,1.475,2.62,2.246
		c0.855,0.771,1.689,1.563,2.504,2.376c0.813,0.813,1.606,1.647,2.378,2.5c0.772,0.854,1.522,1.726,2.25,2.618
		c0.727,0.892,1.431,1.801,2.114,2.728c0.681,0.927,1.339,1.871,1.972,2.832c0.633,0.961,1.242,1.937,1.826,2.928
		c0.584,0.992,1.143,1.997,1.676,3.017c0.533,1.02,1.04,2.053,1.52,3.098c0.481,1.046,0.935,2.103,1.362,3.171
		c0.427,1.068,0.826,2.147,1.198,3.236c0.373,1.089,0.718,2.187,1.034,3.293s0.605,2.22,0.866,3.341
		c0.26,1.121,0.491,2.248,0.694,3.38c0.203,1.133,0.377,2.271,0.522,3.412c0.145,1.141,0.261,2.286,0.348,3.434
		c1.472,17.75-4.76,35.182-16.396,48.576c-13.046,15.016-29.466,22.33-49.112,23.73c-16.326-0.42-31.658-4.546-44.516-14.974
		c-13.858-11.24-23.436-28.404-25.1-46.232c-1.646-17.606,4.874-36.235,16.344-49.598
		C1590.632,155.142,1608.852,147.771,1627.606,146.376z"/>
	<path style="fill:#375963;" d="M571.026,1727.682c7.042,3.238,13.706,4.792,21.476,5.1c26.83,1.06,53.928,0.158,80.792,0.138
		l141.728,0.272c28.7,0.088,57.472-0.146,86.16,0.658c12.812,0.358,25.572,1.912,38.376,2.112
		c35.096,0.552,70.34,0.054,105.44-0.378c20.282-0.25,40.742-0.14,60.996-1.032c14.096-0.622,27.908-2.64,42.07-2.666
		c82.136,0.459,164.271,0.277,246.404-0.544c19.554-0.276,53.862,2.784,71.5-2.726c30.836,2.444,64.158-0.404,95.226-0.534
		l134.306,0.254c27.872,0,55.8-0.602,83.664-0.184c36.648,0.718,73.49-0.134,110.164-0.146c13.808-0.006,28.582-1.282,42.254-0.014
		c3.204,0.298,6.956,1.074,9.648,2.944c3.044,2.112,5.37,5.91,5.89,9.548c0.484,3.394-0.922,7.21-3.042,9.82
		c-2.856,3.52-6.498,4.708-10.882,5.198c-13.158,1.474-27.31,0.502-40.564,0.504l-77.626-0.03L1554,1755.128l-779.936-0.198
		l-361.688,0.896l-114.434-0.17c-16.866-0.066-34.438,1.136-51.214-0.192c-4.472-0.354-9.54-1.346-13.034-4.378
		c-2.1-1.82-3.078-4.008-3.266-6.752c-0.28-4.114,0.594-8.204,3.47-11.29c2.964-3.18,7.248-4.606,11.444-5.214
		c13.614-1.972,29.478-0.176,43.282,0.006c23.064,0.292,46.128,0.296,69.192,0.012c24.604,1.082,49.684-0.32,74.352-0.458
		C478.455,1726.93,524.741,1727.027,571.026,1727.682z"/>
	<path style="fill:#DCDEDE;" d="M377.24,1726.85c-14.544-14.708-29.93-28.41-44.63-42.914c-21.462-21.174-42.364-43.82-61.166-67.41
		c-39.534-49.596-82.354-119.46-108.996-176.756c-52.825-113.604-89.148-260.224-88.475-385.646
		c-0.064-15.269,0.228-30.532,0.877-45.788c0.649-15.256,1.654-30.489,3.015-45.698c1.361-15.209,3.076-30.379,5.146-45.508
		c2.07-15.128,4.492-30.2,7.266-45.216c1.01-5.201,2.067-10.392,3.173-15.572c1.106-5.181,2.26-10.352,3.461-15.512
		c1.202-5.16,2.451-10.308,3.749-15.444c1.297-5.136,2.642-10.26,4.034-15.372c1.392-5.112,2.832-10.21,4.319-15.294
		c1.487-5.085,3.021-10.156,4.602-15.212c1.581-5.057,3.209-10.099,4.883-15.124c1.674-5.027,3.395-10.037,5.163-15.032
		c1.767-4.993,3.581-9.971,5.44-14.932c1.86-4.96,3.765-9.903,5.717-14.828c1.951-4.925,3.948-9.833,5.99-14.722
		c2.042-4.888,4.13-9.757,6.262-14.606c2.133-4.849,4.31-9.679,6.532-14.488c2.222-4.809,4.489-9.597,6.8-14.364
		c2.311-4.768,4.666-9.513,7.065-14.236c2.399-4.724,4.842-9.425,7.328-14.104c2.486-4.677,5.016-9.332,7.588-13.964
		c2.572-4.631,5.188-9.237,7.846-13.82c2.658-4.583,5.358-9.141,8.101-13.674c2.743-4.532,5.527-9.039,8.353-13.52
		c2.827-4.481,5.694-8.936,8.602-13.364c2.909-4.428,5.859-8.828,8.85-13.2c2.989-4.373,6.02-8.719,9.092-13.036
		c3.071-4.317,6.181-8.605,9.332-12.864c3.149-4.26,6.339-8.49,9.568-12.69c3.229-4.2,6.497-8.369,9.802-12.508
		c3.307-4.14,6.651-8.249,10.034-12.326c3.383-4.077,6.803-8.123,10.26-12.138c3.457-4.013,6.951-7.995,10.482-11.944
		c3.532-3.949,7.1-7.865,10.704-11.748c3.604-3.884,7.243-7.733,10.918-11.548c3.676-3.816,7.387-7.597,11.132-11.344
		C498.948,259.074,719.53,176.088,961.5,179.11c8.171,0.136,16.339,0.373,24.504,0.71c8.165,0.337,16.325,0.774,24.48,1.311
		c8.153,0.537,16.3,1.175,24.44,1.912c8.139,0.738,16.267,1.575,24.384,2.511c8.119,0.937,16.224,1.973,24.316,3.109
		c8.093,1.136,16.171,2.371,24.234,3.705c8.063,1.334,16.107,2.767,24.134,4.299c8.027,1.532,16.034,3.162,24.022,4.89
		c7.987,1.728,15.951,3.554,23.894,5.478c7.943,1.924,15.86,3.945,23.752,6.064c7.893,2.119,15.759,4.334,23.598,6.646
		c7.837,2.311,15.646,4.718,23.426,7.222c7.779,2.503,15.526,5.101,23.242,7.794c7.716,2.693,15.397,5.481,23.044,8.364
		c7.647,2.881,15.257,5.857,22.832,8.926c7.573,3.068,15.108,6.229,22.604,9.484c7.496,3.253,14.951,6.599,22.366,10.036
		c7.415,3.437,14.785,6.965,22.112,10.582c7.328,3.619,14.61,7.326,21.846,11.122c7.237,3.797,14.427,7.683,21.568,11.656
		c7.141,3.973,14.233,8.033,21.274,12.18c7.041,4.148,14.031,8.381,20.968,12.7c6.937,4.319,13.821,8.722,20.65,13.21
		s13.603,9.059,20.32,13.714c6.717,4.653,13.377,9.389,19.978,14.208c6.6,4.817,13.141,9.715,19.622,14.694
		c6.48,4.979,12.899,10.036,19.256,15.172c6.356,5.135,12.649,10.347,18.878,15.638c6.228,5.291,12.39,10.657,18.486,16.1
		c6.097,5.441,12.127,10.957,18.088,16.546c5.961,5.591,11.853,11.253,17.676,16.986c5.821,5.735,11.572,11.54,17.252,17.416
		c11.172,11.379,22.058,23.025,32.658,34.938c10.599,11.913,20.899,24.08,30.9,36.5c10.001,12.42,19.692,25.078,29.072,37.974
		c9.379,12.896,18.435,26.015,27.17,39.356c10.196,15.802,19.216,32.36,28.756,48.56c9.13,15.504,19.2,30.406,27.692,46.296
		c4.728,8.891,9.317,17.853,13.766,26.886c4.451,9.033,8.759,18.134,12.926,27.302c4.167,9.167,8.19,18.396,12.07,27.688
		c3.88,9.293,7.615,18.644,11.204,28.052c3.589,9.408,7.031,18.87,10.326,28.386c3.296,9.516,6.443,19.081,9.44,28.694
		c2.999,9.613,5.847,19.271,8.544,28.972c2.697,9.701,5.243,19.443,7.638,29.224c2.396,9.781,4.639,19.597,6.728,29.448
		c2.089,9.851,4.025,19.731,5.808,29.642c1.783,9.911,3.411,19.847,4.884,29.808c1.475,9.961,2.793,19.943,3.956,29.946
		c1.164,10.003,2.172,20.021,3.024,30.054c0.852,10.035,1.548,20.079,2.088,30.134c0.54,10.056,0.923,20.117,1.15,30.184
		c0.227,10.068,0.297,20.137,0.212,30.206c-1.512,109.34-20.76,209.856-58.124,312.498c-12.186,33.478-25.798,67.146-42.2,98.812
		c-10.452,20.182-21.16,40.902-33.018,60.288c-13.178,21.544-28.372,42.556-40.252,64.808c-27.864-0.418-55.792,0.184-83.664,0.184
		l-134.306-0.254c-31.068,0.13-64.39,2.978-95.226,0.534c7.778-2.45,14.046-5.848,19.956-11.56c1.047-1.027,2.057-2.088,3.032-3.184
		c0.976-1.096,1.913-2.224,2.81-3.384c0.897-1.16,1.755-2.349,2.572-3.568c0.816-1.217,1.59-2.462,2.322-3.734
		c0.731-1.271,1.418-2.565,2.062-3.884c0.643-1.317,1.24-2.656,1.792-4.016c0.552-1.359,1.057-2.735,1.514-4.128
		c0.459-1.393,0.869-2.801,1.23-4.222c3.716-15.162,1.872-33.182,1.864-48.736c-0.129-23.532-0.045-47.062,0.254-70.59
		c2.497,2.676,5.031,5.318,7.602,7.926c23.07,23.128,53.03,28.604,84.314,28.582c10.26-0.008,20.872,0.414,31.07-0.692
		c26.944-2.924,53.292-17.066,72.19-36.188c41.9-42.392,37.274-89.878,36.824-144.392c-0.956-30.28,0.412-60.932,0.49-91.256
		l-0.138-208.522c-1.906-39.286,6.492-83.05-7.844-120.4c-13.566-35.346-37.958-62.764-72.698-78.016
		c-32.552-13.74-66.978-14.502-100.646-4.23c-19.428,6.624-34.728,15.92-50.5,28.992c-0.608-18.75,1.996-88.598-2.204-99.808
		c-9.102-4.072-26.286-1.71-36.352-1.6c-0.532-15.04,0.522-30.084-0.308-45.126c-11.768-1.13-24.324-0.402-36.176-0.434
		c-0.172-21.13,0.68-42.346-0.184-63.458c-14.872-0.818-29.992-0.278-44.886-0.232l-78.854,0.198l-65.36-0.06
		c-20.614-0.02-41.026-0.436-61.488,2.618c-70.1,10.462-120.564,50.526-161.684,105.812c-10.206-19.076-26.584-35.962-42.464-50.404
		c-3.389-3.097-6.872-6.086-10.448-8.966s-7.238-5.646-10.986-8.298c-3.749-2.651-7.577-5.183-11.484-7.596
		c-3.907-2.412-7.885-4.7-11.934-6.864c-4.049-2.164-8.163-4.199-12.34-6.106c-4.176-1.908-8.408-3.683-12.696-5.326
		c-4.288-1.643-8.623-3.151-13.004-4.524c-4.381-1.372-8.801-2.606-13.26-3.702c-42.206-10.406-103.274-6.374-148.13-6.4
		c-40.112-0.024-80.782-1.364-120.834,0.65c-0.92,21.698-0.002,43.812,0.136,65.55c-7.976-0.08-27.398-2.426-33.054,2.75
		c-1.718,1.572-2.556,3.918-2.75,6.196c-0.426,4.998,0.486,10.378,0.666,15.424c0.286,8.114,0.092,16.288,0.04,24.408
		c-10.706,0.318-25.594-1.412-35.56,2.206c-3.56,6.336-1.748,83.604-1.764,97.706c-17.998-16.032-35.832-26.448-58.022-35.554
		c-33.726-10.558-73.034-8.19-105.268,5.872c-32.772,14.74-58.044,40.144-70.96,74.004c-13.932,36.528-8.866,85.496-9.12,124.716
		l-0.298,298.886c-0.054,57.89-3.28,98.244,41.16,142.89c27.486,27.614,65.734,41.378,104.394,41.332
		c36.964-0.044,69.962-14.116,97.74-37.88c-0.301,23.544-0.466,47.089-0.494,70.634c-0.054,15.252-1.918,32.79,1.848,47.614
		c0.36,1.359,0.763,2.704,1.208,4.036c0.445,1.333,0.933,2.651,1.464,3.952c0.531,1.301,1.102,2.584,1.714,3.848
		c0.612,1.265,1.264,2.509,1.956,3.732c0.693,1.223,1.424,2.422,2.192,3.598c0.769,1.177,1.575,2.328,2.418,3.452
		c0.844,1.124,1.722,2.22,2.634,3.288c0.913,1.068,1.86,2.106,2.84,3.114c4.44,4.614,9.664,8.522,14.942,12.12
		c-46.285-0.655-92.571-0.752-138.858-0.292c-24.668,0.138-49.748,1.54-74.352,0.458
		C364.3,1727.308,370.736,1727.006,377.24,1726.85z"/>
	<path style="fill:#FD4F5A;" d="M1526.55,775.924c31.39-11.594,62.076-27.136,94.888-34.358c4.33,16.39,10.176,32.36,14.452,48.754
		c5.669,22.001,10.283,44.221,13.84,66.66c3.557,22.439,6.043,44.996,7.456,67.672c-32.552-13.74-66.978-14.502-100.646-4.23
		c-5.054-30.582-8.624-60.944-15.362-91.292C1537.198,811.214,1530.968,793.77,1526.55,775.924z"/>
	<path style="fill:#FD4F5A;" d="M407.118,746.806c31.252,1.074,60.406,5.466,82.704,29.306c5.348,5.718,10.196,12.516,12.336,20.118
		c-9.03,40.012-20.272,80.99-21.502,122.244c-33.726-10.558-73.034-8.19-105.268,5.872
		C372.372,880.646,391.96,788.622,407.118,746.806z"/>
	<path style="fill:#FD4F5A;" d="M295.01,1421.952c-22.46-0.96-62.212,5.462-79.914-10.386c-10.268-9.194-14.152-20.29-14.614-33.678
		c-1.612-46.802-0.254-94.158-0.272-141.016c-0.01-21.018-2.061-63.156,1.288-81.41c1.28-6.976,6.456-14.946,11.376-20.012
		c1.264-1.299,2.609-2.507,4.034-3.626c1.424-1.12,2.917-2.139,4.478-3.058c1.563-0.92,3.179-1.731,4.848-2.434
		c1.669-0.704,3.379-1.293,5.128-1.768c15.748-4.284,46.376-1.638,63.946-1.498L295.01,1421.952z"/>
	<path style="fill:#FD4F5A;" d="M1737.728,1123.068c16.986-0.078,50.574-2.37,65.546,1.11c6.688,1.554,13.062,4.778,17.852,9.76
		c4.97,5.168,8.81,12.792,9.784,19.908c1.644,11.982,0.986,24.662,0.972,36.752l-0.168,58.188l-0.422,96.622
		c-0.062,14.546,0.576,29.292-0.02,43.81c-0.42,10.272-4.32,18.14-11.926,25.198c-14.812,13.748-61.196,7.776-81.97,8.43
		c-0.956-30.28,0.412-60.932,0.49-91.256L1737.728,1123.068z"/>
	<path style="fill:#192E35;" d="M407.118,746.806c3.824-13.309,8.265-26.409,13.324-39.3c5.057-12.891,10.709-25.515,16.956-37.874
		c22.166-44.308,47.178-87.08,77.484-126.398c16.65-21.602,35.324-41.34,54.746-60.442c73.036-71.834,157.496-122.67,254.624-155.06
		c42.636-14.218,86.548-22.596,131.238-27.006c115.1-11.358,229.686,6.49,333.518,58.488c4.864,2.391,9.697,4.842,14.5,7.354
		c4.804,2.512,9.575,5.083,14.314,7.712c4.739,2.631,9.444,5.32,14.116,8.068c4.672,2.747,9.309,5.551,13.912,8.414
		c4.603,2.864,9.169,5.784,13.698,8.76c4.529,2.976,9.021,6.008,13.476,9.096c4.455,3.089,8.87,6.233,13.246,9.43
		c4.376,3.199,8.711,6.451,13.006,9.756c4.295,3.307,8.548,6.666,12.76,10.078c4.211,3.412,8.379,6.876,12.504,10.392
		c4.125,3.515,8.206,7.081,12.242,10.698c4.037,3.617,8.029,7.285,11.974,11.002c3.945,3.716,7.843,7.481,11.694,11.294
		c3.852,3.815,7.655,7.676,11.41,11.584c3.756,3.908,7.462,7.862,11.118,11.862c3.657,4.001,7.264,8.047,10.82,12.138
		c3.556,4.089,7.061,8.223,10.514,12.4c3.453,4.179,6.855,8.399,10.204,12.66c3.348,4.263,6.643,8.566,9.884,12.91
		c3.241,4.344,6.428,8.728,9.56,13.152c3.132,4.423,6.209,8.884,9.23,13.384c3.02,4.5,5.985,9.037,8.894,13.612
		c2.908,4.573,5.759,9.183,8.552,13.828c2.793,4.644,5.528,9.323,8.204,14.036c2.677,4.713,5.295,9.459,7.854,14.236
		c2.559,4.779,5.058,9.588,7.498,14.428c2.439,4.84,4.817,9.71,7.136,14.61c2.317,4.899,4.573,9.826,6.768,14.782
		c2.196,4.956,4.329,9.938,6.4,14.946c2.072,5.009,4.081,10.043,6.026,15.102c1.947,5.059,3.829,10.141,5.648,15.246
		c1.82,5.105,3.576,10.233,5.268,15.382c-32.812,7.222-63.498,22.764-94.888,34.358c-7.558-23.95-18.73-47.134-29.928-69.552
		c-52.736-105.59-131.844-190.072-236.998-244.66c-3.816-1.969-7.655-3.892-11.518-5.768c-3.863-1.875-7.748-3.703-11.656-5.484
		c-3.907-1.781-7.835-3.515-11.784-5.202c-3.949-1.685-7.919-3.323-11.908-4.912c-3.989-1.589-7.997-3.13-12.024-4.622
		c-4.027-1.492-8.071-2.935-12.132-4.33c-4.061-1.393-8.139-2.737-12.234-4.032s-8.204-2.539-12.328-3.734
		c-4.125-1.195-8.264-2.339-12.416-3.434s-8.317-2.139-12.494-3.132c-4.179-0.992-8.368-1.934-12.568-2.826
		c-4.201-0.891-8.413-1.731-12.634-2.52c-4.22-0.789-8.45-1.527-12.69-2.212c-4.239-0.687-8.485-1.321-12.74-1.904
		c-4.255-0.583-8.516-1.114-12.782-1.594c-4.267-0.48-8.539-0.907-12.818-1.282c-4.277-0.376-8.559-0.7-12.844-0.972
		c-4.285-0.271-8.573-0.49-12.864-0.658c-4.292-0.167-8.585-0.282-12.878-0.346c-4.293-0.063-8.587-0.073-12.882-0.032
		c-4.293,0.041-8.586,0.135-12.878,0.28s-8.581,0.343-12.868,0.594c-4.287,0.249-8.57,0.551-12.85,0.904
		c-4.279,0.355-8.553,0.761-12.822,1.218c-4.271,0.457-8.535,0.967-12.792,1.528c-4.257,0.561-8.507,1.175-12.748,1.84
		c-4.243,0.664-8.477,1.38-12.702,2.148c-4.225,0.768-8.441,1.587-12.646,2.456c-4.204,0.869-8.398,1.79-12.582,2.762
		c-4.183,0.972-8.353,1.995-12.51,3.068s-8.301,2.197-12.432,3.37c-4.131,1.175-8.247,2.399-12.348,3.672
		c-4.227,1.347-8.437,2.745-12.63,4.196c-4.192,1.449-8.366,2.951-12.522,4.504c-4.156,1.553-8.292,3.157-12.408,4.812
		c-4.116,1.656-8.211,3.362-12.286,5.118c-4.073,1.756-8.125,3.562-12.154,5.418c-4.031,1.856-8.037,3.761-12.02,5.716
		c-3.983,1.955-7.941,3.958-11.874,6.01c-3.933,2.052-7.841,4.152-11.722,6.3s-7.735,4.344-11.562,6.588
		c-3.828,2.244-7.627,4.534-11.398,6.87c-3.771,2.337-7.512,4.721-11.224,7.15c-3.713,2.429-7.395,4.904-11.046,7.424
		c-3.651,2.52-7.27,5.085-10.858,7.694c-3.588,2.609-7.143,5.263-10.666,7.96c-3.523,2.696-7.012,5.436-10.468,8.22
		c-3.455,2.783-6.875,5.607-10.26,8.474c-3.385,2.867-6.735,5.775-10.05,8.726c-3.313,2.949-6.59,5.939-9.83,8.97
		c-3.24,3.031-6.442,6.101-9.606,9.21c-3.165,3.109-6.291,6.257-9.378,9.444c-3.087,3.187-6.133,6.411-9.14,9.672
		c-3.008,3.261-5.975,6.559-8.902,9.894c-2.925,3.335-5.809,6.705-8.652,10.11c-2.844,3.405-5.645,6.845-8.402,10.32
		c-2.759,3.476-5.474,6.985-8.146,10.526c-2.672,3.541-5.3,7.115-7.884,10.722c-2.583,3.607-5.121,7.244-7.616,10.912
		c-2.493,3.669-4.942,7.369-7.346,11.098c-2.403,3.729-4.759,7.488-7.07,11.276c-2.309,3.787-4.572,7.602-6.788,11.446
		c-2.217,3.843-4.386,7.713-6.506,11.61c-2.121,3.896-4.194,7.818-6.218,11.766c-16.984,32.852-29.462,66.28-40.462,101.518
		c-2.14-7.602-6.988-14.4-12.336-20.118C467.524,752.272,438.37,747.88,407.118,746.806z"/>
	<path style="fill:#DCDEDE;" d="M502.158,796.23c11-35.238,23.478-68.666,40.462-101.518c2.024-3.948,4.097-7.87,6.218-11.766
		c2.12-3.897,4.289-7.767,6.506-11.61c2.216-3.844,4.479-7.659,6.788-11.446c2.311-3.788,4.667-7.547,7.07-11.276
		c2.404-3.729,4.853-7.429,7.346-11.098c2.495-3.668,5.033-7.305,7.616-10.912c2.584-3.607,5.212-7.181,7.884-10.722
		c2.672-3.541,5.387-7.05,8.146-10.526c2.757-3.475,5.558-6.915,8.402-10.32c2.843-3.405,5.727-6.775,8.652-10.11
		c2.927-3.335,5.894-6.633,8.902-9.894c3.007-3.261,6.053-6.485,9.14-9.672c3.087-3.187,6.213-6.335,9.378-9.444
		c3.164-3.109,6.366-6.179,9.606-9.21c3.24-3.031,6.517-6.021,9.83-8.97c3.315-2.949,6.665-5.858,10.05-8.726
		c3.385-2.867,6.805-5.691,10.26-8.474c3.456-2.783,6.945-5.523,10.468-8.22c3.523-2.697,7.078-5.351,10.666-7.96
		c3.588-2.609,7.207-5.174,10.858-7.694c3.651-2.52,7.333-4.995,11.046-7.424c3.712-2.429,7.453-4.813,11.224-7.15
		c3.771-2.336,7.57-4.626,11.398-6.87c3.827-2.244,7.681-4.44,11.562-6.588s7.789-4.248,11.722-6.3
		c3.933-2.052,7.891-4.055,11.874-6.01c3.983-1.955,7.989-3.86,12.02-5.716c4.029-1.856,8.081-3.662,12.154-5.418
		c4.075-1.756,8.17-3.462,12.286-5.118c4.116-1.655,8.252-3.259,12.408-4.812c4.156-1.553,8.33-3.055,12.522-4.504
		c4.193-1.451,8.403-2.849,12.63-4.196c4.101-1.273,8.217-2.497,12.348-3.672c4.131-1.173,8.275-2.297,12.432-3.37
		s8.327-2.096,12.51-3.068c4.184-0.972,8.378-1.893,12.582-2.762c4.205-0.869,8.421-1.688,12.646-2.456
		c4.225-0.768,8.459-1.484,12.702-2.148c4.241-0.665,8.491-1.279,12.748-1.84c4.257-0.561,8.521-1.071,12.792-1.528
		c4.269-0.457,8.543-0.863,12.822-1.218c4.28-0.353,8.563-0.655,12.85-0.904c4.287-0.251,8.576-0.449,12.868-0.594
		s8.585-0.239,12.878-0.28c4.295-0.041,8.589-0.031,12.882,0.032c4.293,0.064,8.586,0.179,12.878,0.346
		c4.291,0.168,8.579,0.387,12.864,0.658c4.285,0.272,8.567,0.596,12.844,0.972c4.279,0.375,8.551,0.802,12.818,1.282
		c4.268,0.48,8.529,1.011,12.782,1.594c4.255,0.583,8.501,1.217,12.74,1.904c4.24,0.685,8.47,1.423,12.69,2.212
		c4.221,0.789,8.433,1.629,12.634,2.52c4.2,0.892,8.389,1.834,12.568,2.826c4.177,0.993,8.342,2.037,12.494,3.132
		s8.291,2.239,12.416,3.434c4.124,1.195,8.233,2.439,12.328,3.734s8.173,2.639,12.234,4.032c4.061,1.395,8.105,2.838,12.132,4.33
		c4.027,1.492,8.035,3.033,12.024,4.622c3.989,1.589,7.959,3.227,11.908,4.912c3.949,1.687,7.877,3.421,11.784,5.202
		c3.908,1.781,7.793,3.609,11.656,5.484c3.863,1.876,7.702,3.799,11.518,5.768c105.154,54.588,184.262,139.07,236.998,244.66
		c11.198,22.418,22.37,45.602,29.928,69.552c4.418,17.846,10.648,35.29,14.628,53.206c6.738,30.348,10.308,60.71,15.362,91.292
		c-19.428,6.624-34.728,15.92-50.5,28.992c-0.608-18.75,1.996-88.598-2.204-99.808c-9.102-4.072-26.286-1.71-36.352-1.6
		c-0.532-15.04,0.522-30.084-0.308-45.126c-11.768-1.13-24.324-0.402-36.176-0.434c-0.172-21.13,0.68-42.346-0.184-63.458
		c-14.872-0.818-29.992-0.278-44.886-0.232l-78.854,0.198l-65.36-0.06c-20.614-0.02-41.026-0.436-61.488,2.618
		c-70.1,10.462-120.564,50.526-161.684,105.812c-10.206-19.076-26.584-35.962-42.464-50.404c-3.389-3.097-6.872-6.086-10.448-8.966
		s-7.238-5.646-10.986-8.298c-3.749-2.651-7.577-5.183-11.484-7.596c-3.907-2.412-7.885-4.7-11.934-6.864
		c-4.049-2.164-8.163-4.199-12.34-6.106c-4.176-1.908-8.408-3.683-12.696-5.326c-4.288-1.643-8.623-3.151-13.004-4.524
		c-4.381-1.372-8.801-2.606-13.26-3.702c-42.206-10.406-103.274-6.374-148.13-6.4c-40.112-0.024-80.782-1.364-120.834,0.65
		c-0.92,21.698-0.002,43.812,0.136,65.55c-7.976-0.08-27.398-2.426-33.054,2.75c-1.718,1.572-2.556,3.918-2.75,6.196
		c-0.426,4.998,0.486,10.378,0.666,15.424c0.286,8.114,0.092,16.288,0.04,24.408c-10.706,0.318-25.594-1.412-35.56,2.206
		c-3.56,6.336-1.748,83.604-1.764,97.706c-17.998-16.032-35.832-26.448-58.022-35.554
		C481.886,877.22,493.128,836.242,502.158,796.23z"/>
	<path style="fill:#192E35;" d="M1018.544,847.324c41.12-55.286,91.584-95.35,161.684-105.812
		c20.462-3.054,40.874-2.638,61.488-2.618l65.36,0.06l78.854-0.198c14.894-0.046,30.014-0.586,44.886,0.232
		c0.864,21.112,0.012,42.328,0.184,63.458c11.852,0.032,24.408-0.696,36.176,0.434c0.83,15.042-0.224,30.086,0.308,45.126
		c10.066-0.11,27.25-2.472,36.352,1.6c4.2,11.21,1.596,81.058,2.204,99.808c15.772-13.072,31.072-22.368,50.5-28.992
		c33.668-10.272,68.094-9.51,100.646,4.23c34.74,15.252,59.132,42.67,72.698,78.016c14.336,37.35,5.938,81.114,7.844,120.4
		l0.138,208.522c-0.078,30.324-1.446,60.976-0.49,91.256c0.45,54.514,5.076,102-36.824,144.392
		c-18.898,19.122-45.246,33.264-72.19,36.188c-10.198,1.106-20.81,0.684-31.07,0.692c-31.284,0.022-61.244-5.454-84.314-28.582
		c-2.571-2.608-5.105-5.25-7.602-7.926c-0.299,23.529-0.383,47.059-0.254,70.59c0.008,15.554,1.852,33.574-1.864,48.736
		c-0.361,1.421-0.771,2.829-1.23,4.222c-0.457,1.393-0.962,2.769-1.514,4.128c-0.552,1.36-1.149,2.699-1.792,4.016
		c-0.644,1.319-1.331,2.613-2.062,3.884c-0.732,1.272-1.506,2.517-2.322,3.734c-0.817,1.219-1.675,2.408-2.572,3.568
		c-0.897,1.16-1.834,2.288-2.81,3.384c-0.975,1.096-1.985,2.157-3.032,3.184c-5.91,5.712-12.178,9.11-19.956,11.56
		c-17.638,5.51-51.946,2.45-71.5,2.726c-82.133,0.821-164.268,1.003-246.404,0.544c-14.162,0.026-27.974,2.044-42.07,2.666
		c-20.254,0.892-40.714,0.782-60.996,1.032c-35.1,0.432-70.344,0.93-105.44,0.378c-12.804-0.2-25.564-1.754-38.376-2.112
		c-28.688-0.804-57.46-0.57-86.16-0.658l-141.728-0.272c-26.864,0.02-53.962,0.922-80.792-0.138
		c-7.77-0.308-14.434-1.862-21.476-5.1c-5.278-3.598-10.502-7.506-14.942-12.12c-0.98-1.008-1.927-2.046-2.84-3.114
		c-0.912-1.068-1.79-2.164-2.634-3.288c-0.843-1.124-1.649-2.275-2.418-3.452c-0.768-1.176-1.499-2.375-2.192-3.598
		c-0.692-1.223-1.344-2.466-1.956-3.73c-0.612-1.265-1.183-2.549-1.714-3.85c-0.531-1.301-1.019-2.619-1.464-3.952
		c-0.445-1.332-0.848-2.677-1.208-4.036c-3.766-14.824-1.902-32.362-1.848-47.614c0.028-23.545,0.193-47.09,0.494-70.634
		c-27.778,23.764-60.776,37.836-97.74,37.88c-38.66,0.046-76.908-13.718-104.394-41.332c-44.44-44.646-41.214-85-41.16-142.89
		l0.298-298.886c0.254-39.22-4.812-88.188,9.12-124.716c12.916-33.86,38.188-59.264,70.96-74.004
		c32.234-14.062,71.542-16.43,105.268-5.872c22.19,9.106,40.024,19.522,58.022,35.554c0.016-14.102-1.796-91.37,1.764-97.706
		c9.966-3.618,24.854-1.888,35.56-2.206c0.052-8.12,0.246-16.294-0.04-24.408c-0.18-5.046-1.092-10.426-0.666-15.424
		c0.194-2.278,1.032-4.624,2.75-6.196c5.656-5.176,25.078-2.83,33.054-2.75c-0.138-21.738-1.056-43.852-0.136-65.55
		c40.052-2.014,80.722-0.674,120.834-0.65c44.856,0.026,105.924-4.006,148.13,6.4c4.459,1.096,8.879,2.33,13.26,3.702
		c4.381,1.373,8.716,2.881,13.004,4.524c4.288,1.643,8.52,3.418,12.696,5.326c4.177,1.907,8.291,3.942,12.34,6.106
		c4.049,2.164,8.027,4.452,11.934,6.864c3.907,2.413,7.735,4.945,11.484,7.596c3.748,2.652,7.41,5.418,10.986,8.298
		s7.059,5.869,10.448,8.966C991.96,811.362,1008.338,828.248,1018.544,847.324z"/>
	<path style="fill:#DCDEDE;" d="M1035.934,1658.134c25.752-33.732,62.962-51.092,104.032-57.432
		c0.614,18.636-0.456,37.22-0.146,55.836C1117.192,1654.504,1058.134,1655.12,1035.934,1658.134z"/>
	<path style="fill:#FEFEFE;" d="M671.724,1593.588c35.46,0.649,70.922,0.825,106.386,0.526c27.63-0.08,55.866-1.334,83.416,0.68
		c49.74,3.64,111.522,19.19,147.09,56.05c1.824,1.89,3.574,3.806,5.19,5.876l-192.462,1.252c-26.82,0.038-53.958,0.952-80.746,0.048
		c-3.64-5.73-24.116-15.908-31.358-21.83C699.12,1627.914,673.102,1606.746,671.724,1593.588z"/>
	<path style="fill:#FD4F5A;" d="M556.022,872.604c6.006,0.04,12.028-0.006,18.032,0.144l0.89,582.116
		c0.107,46.092-0.137,92.182-0.73,138.272c-0.178,26.152-2.812,56.404,1.998,82.052c30.686,0.932,61.656-0.142,92.368-0.22
		l176.28-0.194c34.056-0.024,68.224-0.606,102.27,0.212l0.002,21.14c-12.308,1.48-25.8,0.536-38.262,0.662
		c-28.911,0.235-57.822,0.322-86.734,0.262l-146.608,0.114c-24.552,0.044-49.206,0.696-73.748,0.19
		c-3.278-0.068-6.706-0.112-9.858-1.102c-16.45-5.17-27.714-24.29-34.972-38.818L556.022,872.604z"/>
	<path style="fill:#DCDEDE;" d="M590.008,819.784l22.982,0.004l0.594,491.582l0.306,165.384c0.058,39.348,0.55,78.718-0.922,118.044
		c19.08-1.904,39.602-2.45,58.756-1.21c1.378,13.158,27.396,34.326,37.516,42.602c7.242,5.922,27.718,16.1,31.358,21.83
		c-17.434,0.706-35.078,0.16-52.536,0.178l-97.844,0.108L590.008,819.784z"/>
	<path style="fill:#FEFEFE;" d="M1429.944,818.226c7.15-0.836,14.14-1.294,21.336-1.424l0.468,840.12l-207.622-0.096l-66.75,0.204
		c-12.292,0.028-25.356,0.818-37.556-0.492c-0.31-18.616,0.76-37.2,0.146-55.836c35.414-4.028,71.482-2.588,107.076-2.556
		c61.241,0.312,122.483,0.309,183.724-0.01c-0.996-111.168-1.278-222.335-0.846-333.502L1429.944,818.226z"/>
	<path style="fill:#BC333D;" d="M1467.586,863.772l21.736,0.028l0.656,555.568l-1.146,173.138
		c-0.064,17.219-0.031,34.437,0.098,51.656c0.056,11.436,0.67,23.204-0.77,34.572c-1.232,9.724-6.69,17.324-13.46,24.11
		c-5.706,5.72-13.568,11.922-21.574,13.648c-13.454,2.9-30.082,1.228-43.846,1.138l-69.228-0.416
		c-62.136-0.29-124.312,1.152-186.432,0.562c-5.225-0.056-10.449-0.173-15.672-0.35l-1.232-0.152
		c-4.518-0.592-9.848-3.308-14.172-2.648c-1.826,2.178-1.564,3.628-1.848,6.41l-0.428,2.3c-10.338,2.73-45.326,0.734-58.684,0.7
		l-131.146,0.176c-1.434-1.092-1.12-0.494-1.476-1.39l-2.046-2.802c-9.706-2.912-71.726-0.488-88.542-0.406
		c-75.382,0.374-151.058,1.65-226.41,0.08c-16.126-0.338-31.564-4.002-42.942-16.23c-12.34-13.26-12.396-29.082-12.072-46.03
		c7.258,14.528,18.522,33.648,34.972,38.818c3.152,0.99,6.58,1.034,9.858,1.102c24.542,0.506,49.196-0.146,73.748-0.19
		l146.608-0.114c28.912,0.06,57.823-0.027,86.734-0.262c12.462-0.126,25.954,0.818,38.262-0.662l0.27,12.13l105.57-0.12
		c16.206,0,34.136-1.618,50.066,0.51l-0.146-11.242c-0.3-7.594-0.042-15.258,0.018-22.86c12.437,0.251,24.875,0.362,37.314,0.334
		c53.266-1.07,106.714-0.058,160.006-0.3c54.902-0.248,110.126-1.738,165.002-0.268l2.326-0.956
		c2.696-11.246,0.63-52.026,0.564-66.23l-0.862-171.154L1467.586,863.772z"/>
	<path style="fill:#601C17;" d="M1120.16,1696.832c5.92,0.108,11.83,0.302,17.744-0.056l0.044,20.65l-1.232-0.152
		c-4.518-0.592-9.848-3.308-14.172-2.648c-1.826,2.178-1.564,3.628-1.848,6.41
		C1119.952,1713.048,1120.224,1704.856,1120.16,1696.832z"/>
	<path style="fill:#FD4F5A;" d="M1140.224,1674.878c53.266-1.07,106.714-0.058,160.006-0.3
		c54.902-0.248,110.126-1.738,165.002-0.268c2.982,0.698,5.576,0.738,7.552,3.398c2.678,3.608,1.104,11.818,0.852,16.086
		c-31.29,1.95-62.944,1.168-94.292,1.258l-166.096,0.404c-24.486,0.166-49.698-0.816-74.102,0.898
		C1139.056,1689.13,1139.194,1682.034,1140.224,1674.878z"/>
	<path style="fill:#BC333D;" d="M1026.67,863.512c26.018-44.904,67.224-75.96,114.266-96.102
		c-0.012,76.324-1.142,152.784,0.002,229.096l0.036,11.544l-0.048,31.158c-15.55,0.082-31.176-0.158-46.714,0.336l0.212,11.668
		c15.244-0.028,30.546-0.348,45.782-0.044c-0.028,9.594-0.276,19.238,0.02,28.824c0.456,16.768,0.537,33.538,0.242,50.31
		c-0.088,8.444-0.992,17.56,0.146,25.91c2.606,1.014,4.552,1.11,7.302,1.212l-7.834,0.168c-0.008,7.656-0.184,15.348,0.014,22.998
		l0.012,10.514c0.056,8.442,0.842,17.368-0.612,25.69c-1.906,1.794-1.788,1.418-4.204,1.666l4.634,0.348
		c-0.404,27.099-0.349,54.197,0.166,81.294c0.972,26.154,0.434,52.37,0.538,78.538l-0.59,206.648
		c-40.368,4.476-69.148,16.982-100.014,43.144c-2.588,2.576-7.438,8.99-10.956,9.218c-1.816-2.94-1.392-6.408-1.422-9.752
		c-2.584-24.112-0.704-60.51-0.718-85.766l-0.174-169.454L1026.67,863.512z"/>
	<path style="fill:#DCDEDE;" d="M1140.108,1191.104c-10.366-0.444-38.002,2.076-45.846-1.59c-0.73-2.744-0.778-4.422-0.482-7.178
		c7.064-4.706,36.79-1.954,46.316-1.746L1140.108,1191.104z"/>
	<path style="fill:#DCDEDE;" d="M1140.938,996.506l0.036,11.544c-15.776-0.32-31.62,0.062-47.404,0.144l-0.03-11.894
		C1109.338,996.234,1125.138,996.624,1140.938,996.506z"/>
	<path style="fill:#DCDEDE;" d="M1094.194,1079.964l46.032,0.028c0.456,16.768,0.537,33.538,0.242,50.31
		c-0.088,8.444-0.992,17.56,0.146,25.91c2.606,1.014,4.552,1.11,7.302,1.212l-7.834,0.168c-15.178,0.418-30.4,0.306-45.586,0.412
		L1094.194,1079.964z"/>
	<path style="fill:#DCDEDE;" d="M1093.678,1218.302c13.872-0.213,27.743-0.161,41.614,0.158l4.634,0.348
		c-0.404,27.099-0.349,54.197,0.166,81.294l-46.668,0.398C1093.11,1273.12,1093.568,1245.686,1093.678,1218.302z"/>
	<path style="fill:#FD9C75;" d="M1140.936,767.41c15.994-5.868,31.964-10.546,48.93-12.674c31.64-3.97,65.398-1.8,97.298-1.764
		c42.304,0.048,84.996-1.04,127.258,0.454c-1.774,165.392-0.242,330.95,0.19,496.356l-0.58,333.434l-162.482,0.156
		c-37.14-0.006-74.458-0.902-111.51,1.916l0.59-206.648c-0.104-26.168,0.434-52.384-0.538-78.538
		c-0.515-27.097-0.57-54.195-0.166-81.294l-4.634-0.348c2.416-0.248,2.298,0.128,4.204-1.666c1.454-8.322,0.668-17.248,0.612-25.69
		l-0.012-10.514c-0.198-7.65-0.022-15.342-0.014-22.998l7.834-0.168c-2.75-0.102-4.696-0.198-7.302-1.212
		c-1.138-8.35-0.234-17.466-0.146-25.91c0.295-16.772,0.214-33.542-0.242-50.31c-0.296-9.586-0.048-19.23-0.02-28.824
		c-15.236-0.304-30.538,0.016-45.782,0.044l-0.212-11.668c15.538-0.494,31.164-0.254,46.714-0.336l0.048-31.158l-0.036-11.544
		C1139.794,920.194,1140.924,843.734,1140.936,767.41z"/>
	<path style="fill:#FEFEFE;" d="M1140.096,1180.59c17.724,0.179,35.448,0.181,53.172,0.006c13.29-0.112,31.318-2.444,44.044,1.128
		c1.502,2.118,1.294,2.63,1.308,5.272c-1.284,2.366-1.79,3.786-4.54,4.748c-4.186,1.462-84.308,0.228-93.972-0.64L1140.096,1180.59z
		"/>
	<path style="fill:#FEFEFE;" d="M1140.926,1039.208c22.948-0.177,45.897-0.227,68.846-0.15c11.926,0.008,25.104-1.078,36.836,0.578
		l0.072,11.466c-35.196-0.022-70.692,0.976-105.848-0.12l-0.626,0.186c-15.236-0.304-30.538,0.016-45.782,0.044l-0.212-11.668
		C1109.75,1039.05,1125.376,1039.29,1140.926,1039.208z"/>
	<path style="fill:#DCDEDE;" d="M1140.926,1039.208c22.948-0.177,45.897-0.227,68.846-0.15c11.926,0.008,25.104-1.078,36.836,0.578
		c-34.884,2.052-70.726,0.332-105.714,0.216l-0.062,11.13l-0.626,0.186c-15.236-0.304-30.538,0.016-45.782,0.044l-0.212-11.668
		C1109.75,1039.05,1125.376,1039.29,1140.926,1039.208z"/>
	<path style="fill:#FEFEFE;" d="M1140.938,996.506c26.72-0.422,224.034-2.282,232.554,1.336c1.146,2.336,0.666,4.694,0.456,7.198
		c-3.49,3.492-7.582,3.276-12.306,3.3l-220.668-0.29L1140.938,996.506z"/>
	<path style="fill:#FEFEFE;" d="M1140.226,1079.992l234.082,0.094l0.4,77.06c-75.522,0.142-151.302-1.072-226.792,0.278
		c-2.75-0.102-4.696-0.198-7.302-1.212c-1.138-8.35-0.234-17.466-0.146-25.91C1140.763,1113.53,1140.682,1096.76,1140.226,1079.992z
		"/>
	<path style="fill:#FEFEFE;" d="M1139.926,1218.808c78.038-0.828,156.188,0.238,234.238,0.284
		c0.057,26.985,0.329,53.968,0.814,80.948l-234.886,0.062C1139.577,1273.005,1139.522,1245.907,1139.926,1218.808z"/>
	<path style="fill:#FD9C75;" d="M626.244,753.98l143.272-0.096c31.62-0.006,65.874-2.974,96.95,3.394
		c62.992,12.904,110.84,52.72,145.51,105.652c1.538,50.736,0.1,101.854,0.164,152.628l0.096,339.166l0.328,196.666l-0.12,55.092
		c-0.01,8.482,0.858,17.476-0.084,25.87l-1.45-0.07c-1.412-1.442-2.846-2.758-4.388-4.06
		c-36.494-30.824-92.756-44.284-139.722-47.72c-31.902-2.332-64.988-0.628-97.004-0.468c-46.534,0.234-93.738,1.026-140.09,5.282
		l-0.984-543.054l-1.766-205.906C626.764,808.908,625.736,781.424,626.244,753.98z"/>
	<path style="fill:#FEFEFE;" d="M674.474,1071.466c52.25-1.636,104.988-0.286,157.292-0.266c0.524,3.654,1.842,8.42,0.624,11.958
		l-2.19,0.696l-159.204,0.222c-0.104-3.118-0.684-7.364,0.386-10.272C672.062,1071.956,672.762,1072.196,674.474,1071.466z"/>
	<path style="fill:#FEFEFE;" d="M671.104,1216.308c24.728-0.726,49.616-0.232,74.364-0.186c29.15,0.052,58.366-0.242,87.502,0.512
		l-0.092,12.144l-161.844,0.254L671.104,1216.308z"/>
	<path style="fill:#FEFEFE;" d="M670.574,996.294l180.172-0.208c36.042-0.028,72.308-0.798,108.314,0.658l-0.04,11.286
		l-288.598,0.034C670.34,1004.156,670.52,1000.206,670.574,996.294z"/>
	<path style="fill:#FEFEFE;" d="M670.692,1034.278c37.608-0.806,75.376,0.084,113,0.128l174.788-0.63
		c0.124,3.956,0.038,7.922,0.018,11.88c-96.09-0.742-192.206,1.362-288.314,0.952
		C670.206,1042.498,670.492,1038.382,670.692,1034.278z"/>
	<path style="fill:#FEFEFE;" d="M695.548,1112.532c87.974-2.144,176.356-0.59,264.366-0.314l-0.214,74.86l-25.554-0.01
		l-263.382-0.236c-0.381-24.667-0.634-49.335-0.758-74.004L695.548,1112.532z"/>
	<path style="fill:#FEFEFE;" d="M669.708,1255.212l289.562,0.534l0.41,76.364l-289.756,0.558L669.708,1255.212z"/>
</g>
</svg>
